<svg xmlns="http://www.w3.org/2000/svg" width="91" height="139" viewBox="0 0 91 139">
  <path d="M3.485 135.515 C2.810 134.840 2.667 134.368 2.667 132.823 C2.667 131.196 2.795 130.820 3.641 129.974 L4.615 129.000 L45.173 129.000 C82.898 129.000 85.798 129.040 86.699 129.572 C87.841 130.247 88.077 130.854 88.077 133.118 C88.077 134.529 87.933 134.925 87.187 135.567 L86.296 136.333 L45.300 136.333 L4.303 136.333 L3.485 135.515 Z M7.668 126.008 C7.265 125.753 7.189 125.028 7.275 122.263 C7.333 120.377 7.542 118.279 7.738 117.601 C7.954 116.855 9.129 115.210 10.713 113.434 C13.398 110.424 14.623 108.384 14.977 106.333 L15.178 105.167 L45.137 105.167 L75.097 105.167 L75.580 106.825 C76.187 108.904 77.859 111.447 79.843 113.307 C81.919 115.252 82.874 116.821 83.310 119.000 C83.791 121.403 83.582 125.638 82.963 126.030 C82.322 126.436 8.310 126.414 7.668 126.008 Z M13.526 102.478 C12.816 101.768 12.861 100.229 13.611 99.550 C14.173 99.041 16.740 99.003 45.326 99.082 L76.428 99.167 L77.119 100.092 C77.774 100.969 77.781 101.065 77.259 101.926 L76.709 102.833 L45.380 102.918 C17.228 102.995 13.998 102.950 13.526 102.478 Z M19.004 95.083 C19.006 94.579 19.231 93.342 19.505 92.333 C20.217 89.706 20.224 80.067 19.517 76.327 C18.831 72.699 18.106 69.070 17.519 66.333 C15.888 58.720 15.325 54.542 15.342 50.167 C15.369 42.929 17.216 35.177 20.008 30.576 C20.367 29.984 20.767 29.275 20.898 29.000 C22.726 25.137 28.297 19.906 33.000 17.634 C35.354 16.497 35.671 16.376 38.498 15.544 C41.072 14.787 41.197 14.702 42.165 13.072 C44.849 8.552 48.176 5.346 52.463 3.150 C54.046 2.339 54.715 2.141 54.894 2.431 C55.030 2.651 55.147 5.531 55.154 8.831 L55.167 14.830 L57.240 15.087 C60.805 15.529 61.328 15.861 64.721 19.833 C69.323 25.220 69.312 25.205 69.112 26.440 C68.913 27.665 69.184 27.954 81.032 39.169 C83.561 41.562 83.918 42.215 85.041 46.500 C85.558 48.470 85.185 50.794 84.118 52.252 C82.387 54.618 82.168 54.635 78.887 52.667 C75.650 50.724 75.530 50.670 75.189 51.011 C74.986 51.214 75.636 52.032 76.974 53.258 C78.450 54.612 79.040 55.380 78.952 55.834 C78.763 56.820 76.423 57.988 74.626 57.995 C73.141 58.000 72.987 57.902 70.293 55.237 C67.184 52.161 65.868 51.357 62.600 50.537 C60.787 50.083 59.884 50.037 57.802 50.296 C52.455 50.959 48.632 49.661 44.924 45.922 C43.199 44.182 43.000 44.074 43.000 44.869 C43.000 45.641 44.657 47.678 48.529 51.667 C50.398 53.592 52.431 55.711 53.047 56.377 C53.663 57.043 55.827 59.368 57.855 61.544 C61.124 65.050 63.868 68.071 66.139 70.667 C70.077 75.166 73.212 80.688 74.147 84.771 C74.996 88.478 74.697 94.153 73.578 95.583 C73.322 95.911 67.430 96.000 46.126 96.000 L19.000 96.000 L19.004 95.083 Z M54.667 86.728 C54.667 85.524 53.966 82.137 53.447 80.833 C52.426 78.269 51.815 77.167 49.417 73.561 C48.087 71.563 47.000 69.864 47.000 69.784 C47.000 69.618 45.597 67.584 45.309 67.333 C45.204 67.242 45.012 66.879 44.881 66.528 C44.719 66.089 44.537 65.996 44.301 66.232 C43.875 66.659 45.376 69.936 47.935 74.163 C50.703 78.734 52.521 82.679 53.160 85.498 C53.530 87.127 54.667 88.055 54.667 86.728 Z M15.905 83.257 C14.474 82.512 12.280 81.662 8.710 80.469 C5.093 79.259 5.000 79.188 5.000 77.609 C5.000 76.014 4.220 69.156 3.414 63.667 C2.573 57.942 2.604 43.247 3.466 39.333 C4.845 33.065 7.332 27.149 10.611 22.333 C12.477 19.593 18.220 13.875 20.808 12.180 C25.683 8.988 31.666 6.694 37.318 5.851 C42.010 5.150 45.245 4.921 45.464 5.275 C45.570 5.446 45.090 6.241 44.398 7.043 C42.448 9.303 41.000 11.232 41.000 11.569 C41.000 12.215 39.091 13.664 37.988 13.854 C36.419 14.126 32.269 15.890 29.833 17.322 C27.175 18.884 22.796 23.117 20.696 26.156 C19.763 27.505 19.000 28.723 19.000 28.862 C19.000 29.000 18.800 29.351 18.556 29.640 C17.596 30.778 15.584 36.107 14.581 40.167 C13.933 42.787 13.839 44.053 13.840 50.167 C13.841 57.210 13.914 57.886 15.485 65.333 C15.737 66.525 16.191 68.700 16.494 70.167 C16.798 71.633 17.196 73.532 17.380 74.387 C17.717 75.958 18.308 81.397 18.324 83.083 C18.335 84.182 17.763 84.223 15.905 83.257 Z M63.359 30.026 C64.601 28.783 64.639 27.415 63.470 26.026 C62.835 25.271 62.329 25.003 61.554 25.011 C58.681 25.041 57.668 28.748 60.106 30.309 C61.545 31.231 62.212 31.173 63.359 30.026 Z" fill="#000000" fill-rule="evenodd"/>
</svg>
